# xmcd
#
# Track frame offsets: 
#        150
#        19700
#        43724
#        58424
#        88438
#        110784
#        127081
#        149755
#        162982
#
# Disc length: 2419 seconds
#
# Revision: 0
# Processed by: cddbd v1.5.2PL0 Copyright (c) Steve Scherf et al.
# Submitted via: ExactAudioCopy v0.99pb4
#
DISCID=90097109
DTITLE=Kashmere Stage Band - Zero Point
DYEAR=1972
DGENRE=Funk
TTITLE0=Thank You
TTITLE1=Do Your Thing
TTITLE2=Walk On By
TTITLE3=All Praises
TTITLE4=Masquerade
TTITLE5=Scorpio
TTITLE6=Jeeps Blues
TTITLE7=Al's Tune
TTITLE8=To All The Beautiful Black Woman
EXTD=
EXTT0=
EXTT1=
EXTT2=
EXTT3=
EXTT4=
EXTT5=
EXTT6=
EXTT7=
EXTT8=
PLAYORDER=
